<svg xmlns="http://www.w3.org/2000/svg" width="440" height="264" viewBox="0 0 440 264">
<g class="qp101-svg" fill="none" font-family="monospace" font-size="14">
<text x="8" y="56" fill="#20252d" dominant-baseline="middle">q0</text>
<line class="wire" x1="56" y1="56" x2="416" y2="56" stroke="#667085" stroke-width="1" />
<text x="8" y="144" fill="#20252d" dominant-baseline="middle">q1</text>
<line class="wire" x1="56" y1="144" x2="416" y2="144" stroke="#667085" stroke-width="1" />
<text x="8" y="232" fill="#20252d" dominant-baseline="middle">q2</text>
<line class="wire" x1="56" y1="232" x2="416" y2="232" stroke="#667085" stroke-width="1" />
<rect class="noise-box" x="109" y="42" width="38" height="28" rx="4" ry="4" stroke="#9a3412" fill="#fff7ed" />
<text x="128" y="56" fill="#111827" text-anchor="middle" dominant-baseline="middle">D1</text>
<text class="param-note" x="128" y="84" fill="#475467" text-anchor="middle" font-size="11">1</text>
<text class="annotation annotation-preset-danger" data-style-preset="danger" data-style-highlight="true" data-annotation-tags="sample-trace query-result" fill="#dc2626" x="128" y="34" text-anchor="middle" font-size="11">X</text>
<rect class="noise-box" x="109" y="130" width="38" height="28" rx="4" ry="4" stroke="#9a3412" fill="#fff7ed" />
<text x="128" y="144" fill="#111827" text-anchor="middle" dominant-baseline="middle">LOSS</text>
<text class="param-note" x="128" y="172" fill="#475467" text-anchor="middle" font-size="11">1</text>
<text class="annotation annotation-preset-danger" data-style-preset="danger" data-style-highlight="true" data-annotation-tags="sample-trace query-result" fill="#dc2626" x="128" y="122" text-anchor="middle" font-size="11">L</text>
<rect class="noise-box" x="109" y="218" width="38" height="28" rx="4" ry="4" stroke="#9a3412" fill="#fff7ed" />
<text x="128" y="232" fill="#111827" text-anchor="middle" dominant-baseline="middle">LOSS</text>
<text class="param-note" x="128" y="260" fill="#475467" text-anchor="middle" font-size="11">1</text>
<text class="annotation annotation-preset-danger" data-style-preset="danger" data-style-highlight="true" data-annotation-tags="sample-trace query-result" fill="#dc2626" x="128" y="210" text-anchor="middle" font-size="11">L</text>
<rect class="gate-box" x="181" y="130" width="38" height="28" rx="4" ry="4" stroke="#111827" fill="#ffffff" />
<text x="200" y="144" fill="#111827" text-anchor="middle" dominant-baseline="middle">M</text>
<text class="measurement-anchor" x="200" y="172" fill="#2563eb" text-anchor="middle" font-size="11">m1</text>
<text class="annotation" data-annotation-tags="sample-trace query-result" fill="#7a5af8" x="200" y="122" text-anchor="middle" font-size="11">1[L]</text>
<rect class="gate-box" x="181" y="218" width="38" height="28" rx="4" ry="4" stroke="#111827" fill="#ffffff" />
<text x="200" y="232" fill="#111827" text-anchor="middle" dominant-baseline="middle">MRL</text>
<text class="measurement-anchor" x="200" y="260" fill="#2563eb" text-anchor="middle" font-size="11">m2-m3</text>
<text class="annotation" data-annotation-tags="sample-trace query-result" fill="#7a5af8" x="200" y="210" text-anchor="middle" font-size="11">L=1 | M=1[L]</text>
<rect class="gate-box" x="236" y="130" width="72" height="28" rx="4" ry="4" stroke="#2563eb" fill="#dbeafe" />
<text x="272" y="144" fill="#1d4ed8" text-anchor="middle" dominant-baseline="middle" font-size="11">DETECTOR</text>
<text class="source-label" x="272" y="172" fill="#475467" text-anchor="middle" font-size="11">D0 = m1</text>
</g>
</svg>
